<?xml version="1.0" encoding="UTF-8" standalone="no"?>
<!DOCTYPE svg PUBLIC "-//W3C//DTD SVG 1.1//EN" "http://www.w3.org/Graphics/SVG/1.1/DTD/svg11.dtd">
<svg version="1.1" xmlns="http://www.w3.org/2000/svg" xmlns:xlink="http://www.w3.org/1999/xlink" preserveAspectRatio="xMidYMid meet" viewBox="-1 -1 112 112" width="108" height="108"><defs><path d="M104.67 0C106.51 0 108 1.49 108 3.33C108 24.26 108 83.74 108 104.67C108 106.51 106.51 108 104.67 108C83.74 108 24.26 108 3.33 108C1.49 108 0 106.51 0 104.67C0 83.74 0 24.26 0 3.33C0 1.49 1.49 0 3.33 0C24.26 0 83.74 0 104.67 0Z" id="h8cm5Ish3"></path><path d="M53.88 36.91C53.6 36.71 53.12 36.52 52.45 36.34C52.45 36.76 52.45 40.15 52.45 40.57C53.37 40.53 54 40.19 54.35 39.56C54.53 39.24 54.62 38.87 54.62 38.44C54.62 37.77 54.38 37.26 53.88 36.91Z" id="b4w0NeftC7"></path><path d="M51.69 34.68C51.69 34.3 51.69 31.27 51.69 30.89C50.98 30.92 50.47 31.14 50.17 31.54C49.87 31.94 49.72 32.36 49.72 32.8C49.72 33.33 49.9 33.75 50.25 34.05C50.61 34.35 51.09 34.56 51.69 34.68Z" id="d84amQOFJY"></path><path d="M74.99 41.2L74.88 41.3L74.78 41.39L74.68 41.49L74.59 41.6L74.5 41.71L74.42 41.82L74.34 41.94L74.26 42.06L74.19 42.19L74.12 42.31L74.06 42.45L74 42.58L73.94 42.72L73.88 42.87L73.83 43.01L73.79 43.16L73.74 43.32L73.7 43.47L73.66 43.63L73.62 43.79L73.59 43.95L73.56 44.12L73.53 44.29L73.5 44.46L73.47 44.63L73.45 44.8L73.43 44.98L73.41 45.16L73.39 45.34L73.37 45.52L73.36 45.7L73.35 45.88L73.33 46.07L73.32 46.25L73.31 46.44L73.6 46.58L73.89 46.72L74.17 46.87L74.45 47.02L74.72 47.18L74.99 47.34L75.26 47.51L75.51 47.68L75.77 47.86L76.02 48.04L76.26 48.23L76.5 48.42L76.74 48.62L76.97 48.82L77.19 49.02L77.42 49.23L77.63 49.44L77.85 49.66L78.06 49.88L78.26 50.11L78.46 50.34L78.66 50.57L78.85 50.81L79.04 51.05L79.22 51.3L79.4 51.55L79.58 51.81L79.75 52.07L79.92 52.33L80.09 52.59L80.25 52.87L80.4 53.14L80.56 53.42L80.71 53.7L80.85 53.98L80.91 53.99L80.98 54L81.06 54.01L81.14 54.02L81.22 54.02L81.31 54.02L81.4 54.03L81.5 54.03L81.61 54.03L81.71 54.03L81.82 54.02L81.93 54.02L82.05 54.02L82.17 54.01L82.29 54.01L82.41 54.01L82.54 54L82.8 53.99L82.93 53.99L83.06 53.98L83.19 53.98L83.32 53.97L83.45 53.97L83.58 53.97L83.71 53.96L83.85 53.96L83.97 53.96L84.1 53.96L84.23 53.96L84.36 53.96L84.48 53.97L84.6 53.97L84.72 53.98L84.83 53.98L84.85 54.23L84.86 54.48L84.87 54.72L84.88 54.96L84.89 55.19L84.9 55.42L84.9 55.65L84.91 55.87L84.91 56.09L84.9 56.3L84.9 56.51L84.89 56.72L84.88 56.92L84.87 57.12L84.85 57.31L84.84 57.5L84.81 57.69L84.79 57.87L84.76 58.05L84.73 58.22L84.7 58.39L84.66 58.55L84.62 58.71L84.57 58.87L84.52 59.02L84.47 59.16L84.41 59.31L84.35 59.44L84.28 59.58L84.21 59.7L84.13 59.83L84.05 59.94L83.97 60.06L83.88 60.16L83.78 60.27L83.28 60.78L82.76 61.27L82.23 61.75L81.69 62.2L81.14 62.64L80.59 63.06L80.03 63.46L79.46 63.85L78.9 64.22L78.33 64.57L77.76 64.91L77.19 65.23L76.63 65.53L76.07 65.82L75.51 66.1L74.97 66.36L74.43 66.6L73.89 66.84L73.37 67.05L72.87 67.26L72.37 67.45L71.89 67.62L71.43 67.79L70.99 67.94L70.56 68.08L70.16 68.21L69.77 68.32L69.41 68.43L69.08 68.52L68.77 68.6L68.49 68.67L68.23 68.74L68.01 68.79L67.82 68.83L67.66 68.86L67.62 69.02L67.58 69.19L67.54 69.35L67.51 69.51L67.49 69.67L67.46 69.84L67.44 70L67.43 70.16L67.41 70.33L67.4 70.49L67.39 70.65L67.38 70.82L67.38 70.98L67.38 71.14L67.38 71.31L67.38 71.47L67.39 71.63L67.39 71.8L67.4 71.96L67.41 72.12L67.42 72.29L67.43 72.45L67.45 72.61L67.46 72.77L67.48 72.93L67.5 73.1L67.52 73.26L67.54 73.42L67.56 73.58L67.58 73.74L67.6 73.9L67.62 74.06L67.64 74.22L67.67 74.38L67.69 74.53L60.72 74.53L60.64 74.44L60.56 74.34L60.48 74.23L60.4 74.13L60.33 74.03L60.25 73.93L60.17 73.82L60.1 73.72L60.02 73.61L59.95 73.51L59.88 73.4L59.81 73.3L59.73 73.19L59.66 73.08L59.59 72.97L59.52 72.86L59.45 72.75L59.38 72.64L59.31 72.53L59.24 72.42L59.17 72.31L59.11 72.2L59.04 72.09L58.97 71.98L58.9 71.87L58.83 71.76L58.77 71.64L58.7 71.53L58.63 71.42L58.57 71.31L58.5 71.2L58.43 71.08L58.36 70.97L58.3 70.86L58.23 70.75L57.79 70.78L57.36 70.81L56.92 70.84L56.48 70.86L56.05 70.88L55.61 70.9L55.18 70.91L54.75 70.92L54.31 70.93L53.88 70.93L53.45 70.93L53.02 70.93L52.6 70.92L52.17 70.91L51.75 70.9L51.32 70.88L50.9 70.86L50.48 70.83L50.07 70.81L49.65 70.78L49.24 70.74L48.83 70.7L48.42 70.66L48.02 70.62L47.62 70.57L47.22 70.52L46.82 70.47L46.43 70.41L46.04 70.35L45.65 70.28L45.27 70.21L44.89 70.14L44.52 70.07L44.14 69.99L43.77 69.91L43.76 70.05L43.75 70.19L43.74 70.33L43.73 70.47L43.73 70.61L43.72 70.75L43.72 70.89L43.71 71.03L43.71 71.17L43.71 71.3L43.71 71.44L43.72 71.58L43.72 71.71L43.73 71.84L43.73 71.98L43.74 72.11L43.75 72.24L43.75 72.38L43.76 72.51L43.77 72.64L43.78 72.77L43.8 72.9L43.81 73.03L43.82 73.15L43.83 73.28L43.85 73.41L43.86 73.54L43.88 73.66L43.89 73.79L43.91 73.91L43.92 74.04L43.94 74.16L43.95 74.29L43.97 74.41L43.99 74.53L36.94 74.53L36.76 74.29L36.59 74.04L36.42 73.79L36.26 73.53L36.1 73.26L35.96 72.99L35.81 72.71L35.67 72.43L35.54 72.14L35.41 71.84L35.29 71.54L35.17 71.24L35.06 70.93L34.95 70.62L34.85 70.3L34.75 69.97L34.66 69.65L34.57 69.31L34.48 68.98L34.4 68.64L34.32 68.3L34.24 67.95L34.17 67.6L34.1 67.25L34.04 66.89L33.97 66.53L33.91 66.17L33.86 65.81L33.8 65.44L33.75 65.07L33.7 64.7L33.65 64.33L33.6 63.96L33.55 63.58L33.51 63.2L33.22 62.94L32.95 62.65L32.69 62.34L32.46 62.01L32.24 61.66L32.04 61.29L31.85 60.91L31.69 60.51L31.54 60.09L31.4 59.66L31.29 59.22L31.18 58.77L31.1 58.31L31.03 57.84L30.98 57.37L30.94 56.89L30.91 56.41L30.91 55.92L30.91 55.44L30.93 54.95L30.97 54.46L31.02 53.98L31.08 53.5L31.16 53.03L31.25 52.56L31.36 52.1L31.48 51.65L31.61 51.21L31.75 50.78L31.91 50.37L32.08 49.97L32.26 49.58L32.45 49.22L32.66 48.87L32.88 48.54L32.62 48.46L32.39 48.36L32.18 48.23L31.99 48.09L31.83 47.92L31.68 47.74L31.56 47.55L31.46 47.34L31.38 47.13L31.32 46.9L31.28 46.67L31.25 46.43L31.25 46.19L31.26 45.95L31.29 45.71L31.34 45.47L31.4 45.23L31.48 45L31.57 44.78L31.68 44.57L31.8 44.38L31.94 44.19L32.09 44.03L32.25 43.87L32.43 43.74L32.62 43.63L32.82 43.55L33.03 43.49L33.25 43.45L33.48 43.45L33.72 43.48L33.97 43.54L34.23 43.63L34.49 43.76L34.77 43.93L34.6 43.89L34.44 43.88L34.3 43.88L34.16 43.89L34.03 43.92L33.9 43.96L33.79 44.01L33.69 44.07L33.59 44.15L33.5 44.23L33.43 44.32L33.36 44.42L33.3 44.53L33.24 44.64L33.2 44.75L33.17 44.87L33.14 45L33.12 45.12L33.11 45.25L33.11 45.37L33.12 45.5L33.14 45.62L33.17 45.74L33.2 45.86L33.24 45.97L33.29 46.08L33.35 46.18L33.42 46.28L33.5 46.36L33.58 46.44L33.68 46.51L33.78 46.56L33.89 46.6L34.01 46.64L34.13 46.65L34.34 46.44L34.54 46.24L34.75 46.04L34.97 45.84L35.18 45.65L35.4 45.46L35.62 45.27L35.85 45.08L36.07 44.9L36.3 44.73L36.54 44.56L36.77 44.39L37.01 44.22L37.25 44.06L37.5 43.9L37.74 43.74L37.99 43.59L38.24 43.44L38.49 43.29L38.75 43.15L39.01 43.01L39.27 42.88L39.53 42.74L39.79 42.62L40.06 42.49L40.32 42.37L40.59 42.25L40.86 42.13L41.14 42.02L41.41 41.91L41.69 41.8L41.96 41.7L42.24 41.59L42.52 41.5L42.8 41.4L42.8 41.4L42.81 41.41L42.82 41.42L42.82 41.42L42.82 41.42L44.93 44.25L45.34 44.11L45.75 43.98L46.17 43.86L46.58 43.74L47 43.63L47.42 43.53L47.84 43.44L48.27 43.36L48.69 43.28L49.12 43.22L49.54 43.16L49.97 43.11L50.4 43.06L50.83 43.03L51.26 43L51.69 42.99L52.12 42.98L52.55 42.98L52.98 42.98L53.41 43L53.84 43.02L54.27 43.05L54.7 43.09L55.13 43.14L55.56 43.19L55.98 43.26L56.41 43.33L56.83 43.41L57.26 43.5L57.68 43.6L58.1 43.7L58.52 43.81L58.93 43.94L59.35 44.07L59.76 44.2L61.37 41.33L61.6 41.41L61.81 41.49L62.03 41.56L62.25 41.64L62.46 41.73L62.67 41.81L62.88 41.9L63.09 41.98L63.29 42.07L63.49 42.16L63.69 42.26L63.89 42.35L64.08 42.45L64.28 42.54L64.47 42.64L64.65 42.74L64.84 42.85L65.02 42.95L65.2 43.06L65.38 43.17L65.55 43.27L65.72 43.39L65.89 43.5L66.05 43.61L66.21 43.73L66.37 43.85L66.53 43.96L66.68 44.09L66.83 44.21L66.98 44.33L67.12 44.46L67.26 44.58L67.39 44.71L67.53 44.84L67.66 44.98L67.8 44.81L67.95 44.65L68.1 44.48L68.26 44.32L68.42 44.16L68.59 43.99L68.76 43.83L68.94 43.67L69.12 43.51L69.3 43.36L69.49 43.2L69.68 43.05L69.87 42.91L70.07 42.76L70.27 42.62L70.48 42.49L70.69 42.36L70.9 42.23L71.12 42.11L71.33 42L71.56 41.89L71.78 41.79L72.01 41.69L72.25 41.61L72.48 41.53L72.72 41.45L72.96 41.39L73.2 41.33L73.45 41.28L73.7 41.25L73.95 41.22L74.21 41.2L74.47 41.19L74.73 41.19L74.99 41.2ZM72.94 51.43L72.57 51.98L72.43 52.65L72.57 53.32L72.94 53.88L73.49 54.25L74.16 54.38L74.84 54.25L75.39 53.88L75.76 53.32L75.9 52.65L75.76 51.98L75.39 51.43L74.84 51.06L74.16 50.92L73.49 51.06L72.94 51.43Z" id="ce2HORiUK"></path><path d="M48.51 40.09C48.2 39.55 48.05 38.82 48.05 37.9C48.19 37.9 49.33 37.9 49.47 37.9C49.51 38.63 49.63 39.17 49.82 39.51C50.15 40.11 50.77 40.45 51.68 40.53C51.68 40.09 51.68 36.58 51.68 36.14C50.52 35.92 49.66 35.55 49.1 35.04C48.54 34.52 48.27 33.81 48.27 32.9C48.27 32.08 48.57 31.35 49.16 30.69C49.76 30.04 50.6 29.7 51.68 29.69C51.68 29.62 51.68 29.27 51.68 28.62L52.44 28.62C52.44 29.26 52.44 29.61 52.44 29.68C53.51 29.75 54.33 30.07 54.9 30.62C55.47 31.17 55.77 31.91 55.8 32.82C55.66 32.82 54.54 32.82 54.39 32.82C54.36 32.41 54.25 32.06 54.06 31.76C53.72 31.22 53.19 30.94 52.45 30.91C52.45 31.3 52.45 34.44 52.45 34.83C53.69 35.18 54.54 35.51 54.98 35.81C55.71 36.32 56.07 37.06 56.07 38.05C56.07 39.48 55.6 40.49 54.68 41.09C54.3 41.34 53.74 41.5 53.11 41.63C54.97 41.69 56.81 41.99 58.59 42.52C60.27 40.85 61.31 38.53 61.31 35.97C61.31 30.86 57.17 26.72 52.06 26.72C46.95 26.72 42.81 30.86 42.81 35.97C42.81 38.61 43.92 40.98 45.69 42.67C47.41 42.1 49.21 41.77 51.02 41.65C49.83 41.45 48.98 40.94 48.51 40.09Z" id="cEVPteOqs"></path></defs><g><g><use xlink:href="#h8cm5Ish3" opacity="1" fill="#20a898" fill-opacity="1"></use></g><g><use xlink:href="#b4w0NeftC7" opacity="1" fill="#e0a8b0" fill-opacity="1"></use></g><g><use xlink:href="#d84amQOFJY" opacity="1" fill="#e0a8b0" fill-opacity="1"></use></g><g><use xlink:href="#ce2HORiUK" opacity="1" fill="#e0a8b0" fill-opacity="1"></use></g><g><use xlink:href="#cEVPteOqs" opacity="1" fill="#e0a8b0" fill-opacity="1"></use></g></g></svg>